<?xml version="1.0" encoding="UTF-8"?>
<svg xmlns="http://www.w3.org/2000/svg" width="130" height="40" viewBox="0 0 130 40" fill="none">
  <path fill-rule="evenodd" clip-rule="evenodd" d="M4.184 24.5565C5.68569 27.6865 8.06536 29.9186 11.323 31.2528C11.3292 31.2552 11.3312 31.2592 11.3288 31.265V31.2657C11.3273 31.27 11.3244 31.2717 11.3201 31.2707C10.814 31.1355 10.3174 30.9797 9.83042 30.8033C6.26486 29.5095 3.65821 26.9119 2.08158 23.4907C2.07775 23.483 2.07177 23.4789 2.06363 23.4785C2.05692 23.4775 2.05046 23.4789 2.04423 23.4828C2.0337 23.489 2.02939 23.4981 2.0313 23.51C2.04423 23.5994 2.06004 23.6859 2.07871 23.7695C3.2452 29.0379 6.8596 33.2254 12.0312 34.8453C14.1238 35.5009 16.2672 35.6804 18.4613 35.3836C23.1316 34.7521 27.651 31.852 29.2506 27.309C29.7515 25.8864 30.0058 24.4717 30.0134 23.0649C30.0285 20.2472 28.9511 17.5857 26.3933 16.2045C25.1679 15.5426 23.8714 15.3345 22.5038 15.5802C20.7612 15.8934 19.4489 17.0582 19.5157 18.9426C19.5481 19.8465 20.2383 20.5619 21.1757 20.3819C21.3136 20.3557 21.315 20.3236 21.18 20.2859C20.5393 20.106 20.3094 19.4702 20.5357 18.8838C20.8324 18.114 21.7446 17.714 22.5275 17.7262C24.1041 17.7506 25.0738 18.9605 25.2627 20.4357C25.3513 21.1276 25.3161 21.7892 25.1571 22.4205C24.329 25.7055 21.6569 27.3685 18.3931 27.4509C17.0528 27.4844 15.7855 27.2853 14.5912 26.8538C11.5406 25.7514 9.72555 22.8341 9.15811 19.7512C8.39457 15.6052 9.88501 11.0809 12.6087 7.89975C13.9127 6.37729 15.5286 5.12554 17.4564 4.14449C19.1726 3.27144 21.1218 2.68272 23.304 2.37832C24.7616 2.17523 26.1874 2.14178 27.5813 2.27797C29.2118 2.43758 30.8081 2.763 32.3701 3.25424C32.4032 3.26475 32.4099 3.25567 32.3902 3.227C32.3697 3.19642 32.345 3.17013 32.3163 3.14815C31.9475 2.86335 31.5364 2.59957 31.083 2.35682C30.0185 1.78721 28.8489 1.30911 27.5742 0.92252C26.1467 0.489579 24.8315 0.212898 23.6286 0.0924769C19.9805 -0.273803 16.2045 0.464491 12.9097 2.01419C8.78747 3.95239 5.49558 7.39944 3.85862 11.6414C2.70793 14.6242 2.41822 17.6842 2.98949 20.8213C3.23275 22.1589 3.63092 23.4039 4.184 24.5565ZM30.532 8.40366C30.5335 8.39745 30.5376 8.39482 30.5443 8.39577C33.4926 8.89084 35.9905 10.1827 38.0381 12.2715C39.5537 13.8169 40.6282 15.7099 41.4183 17.714C41.4921 17.9004 41.5158 17.8942 41.4895 17.6954C41.0319 14.2412 39.5142 11.0902 36.9147 8.79574C33.6178 5.88629 29.1687 4.74516 24.7829 5.31931C19.775 5.97517 15.0976 9.05092 13.6122 14.014C13.0376 15.935 12.8996 18.0122 13.3407 19.9841C13.6495 21.3668 14.2586 22.6663 15.3339 23.553C16.4377 24.4624 17.6779 25.0021 19.0546 25.1722C20.2951 25.3256 21.6907 25.0418 22.5886 24.1895C23.3068 23.5086 23.6152 22.6613 23.5137 21.6478C23.4289 20.7984 22.7839 20.2379 21.8961 20.3511C21.7395 20.3707 21.7372 20.4025 21.889 20.4464C22.2057 20.5382 22.4514 20.7396 22.5447 21.0564C22.9139 22.3173 21.4479 23.0677 20.428 23.0169C19.2924 22.9609 18.4362 22.2277 18.0088 21.1869C17.4622 19.8565 17.6015 18.3441 18.1625 17.0087C18.9086 15.233 20.1782 14.0252 21.9716 13.3853C23.6545 12.7854 25.5723 12.8012 27.3062 13.2406C28.1385 13.4508 28.8735 13.7457 29.5114 14.1251C30.9982 15.0086 32.1657 16.2162 33.0137 17.7477C34.484 20.4042 34.6852 23.5143 33.714 26.3958C30.9695 34.5385 22.692 38.0444 14.635 37.5455C13.4434 37.4716 12.2015 37.281 11.0558 36.8789C11.0486 36.876 11.0429 36.8777 11.0386 36.8839C11.0354 36.8884 11.0342 36.8939 11.0352 36.8991C11.0361 36.9044 11.0392 36.909 11.0436 36.9118C11.4679 37.1899 11.9185 37.4489 12.3954 37.6888C14.4375 38.7146 16.7037 39.5066 18.9655 39.8034C24.5732 40.5402 30.5435 39.2335 34.8267 35.4202C35.8658 34.4951 36.7962 33.412 37.6179 32.171C37.8794 31.7763 38.1102 31.3734 38.3103 30.9625C40.4716 26.5234 40.8882 21.2277 39.1565 16.6238C37.6624 12.6528 34.604 9.69173 30.5385 8.41584C30.5328 8.41393 30.5306 8.41011 30.532 8.40438V8.40366ZM1.8898 13.3337C1.8898 13.7324 1.56596 14.0555 1.16649 14.0555C0.767018 14.0555 0.443181 13.7324 0.443181 13.3337C0.443181 12.9351 0.767018 12.6119 1.16649 12.6119C1.56596 12.6119 1.8898 12.9351 1.8898 13.3337ZM0.723311 17.137C1.12278 17.137 1.44662 16.8139 1.44662 16.4152C1.44662 16.0166 1.12278 15.6934 0.723311 15.6934C0.323837 15.6934 0 16.0166 0 16.4152C0 16.8139 0.323837 17.137 0.723311 17.137ZM1.49977 19.5239C1.49977 19.9226 1.17594 20.2457 0.776464 20.2457C0.37699 20.2457 0.0531529 19.9226 0.0531529 19.5239C0.0531529 19.1253 0.37699 18.8021 0.776464 18.8021C1.17594 18.8021 1.49977 19.1253 1.49977 19.5239ZM42.0799 21.4148C42.4766 21.4148 42.7982 21.0939 42.7982 20.698C42.7982 20.3022 42.4766 19.9813 42.0799 19.9813C41.6832 19.9813 41.3616 20.3022 41.3616 20.698C41.3616 21.0939 41.6832 21.4148 42.0799 21.4148ZM43 23.8032C43 24.1994 42.6781 24.5207 42.281 24.5207C41.8839 24.5207 41.562 24.1994 41.562 23.8032C41.562 23.4069 41.8839 23.0857 42.281 23.0857C42.6781 23.0857 43 23.4069 43 23.8032ZM41.9843 27.6158C42.381 27.6158 42.7026 27.2949 42.7026 26.899C42.7026 26.5031 42.381 26.1822 41.9843 26.1822C41.5877 26.1822 41.2661 26.5031 41.2661 26.899C41.2661 27.2949 41.5877 27.6158 41.9843 27.6158Z" fill="#FF5D00"></path>
  <path d="M53.4724 8.16428V6.00634H62.7644V8.16428H59.4309V17H56.8113V8.16428H53.4724ZM66.5242 17.1396C65.9982 17.1396 65.5311 17.0519 65.1232 16.8765C64.7188 16.6976 64.3985 16.4292 64.1623 16.0713C63.9297 15.7099 63.8134 15.2572 63.8134 14.7132C63.8134 14.2552 63.8939 13.8687 64.0549 13.5537C64.216 13.2388 64.4379 12.9829 64.7206 12.7861C65.0033 12.5893 65.3289 12.4408 65.6975 12.3406C66.0662 12.2368 66.4598 12.167 66.8785 12.1312C67.3473 12.0883 67.7249 12.0435 68.0112 11.997C68.2974 11.9469 68.505 11.8771 68.6338 11.7877C68.7663 11.6946 68.8325 11.564 68.8325 11.3958V11.369C68.8325 11.0934 68.7376 10.8805 68.548 10.7302C68.3583 10.5799 68.1024 10.5047 67.7803 10.5047C67.4332 10.5047 67.1541 10.5799 66.9429 10.7302C66.7318 10.8805 66.5976 11.088 66.5403 11.3529L64.1194 11.267C64.1909 10.766 64.3752 10.3186 64.6723 9.92498C64.9729 9.52775 65.3844 9.2164 65.9069 8.99095C66.433 8.76191 67.0646 8.6474 67.8018 8.6474C68.3279 8.6474 68.8128 8.71002 69.2565 8.83528C69.7003 8.95695 70.0868 9.13588 70.416 9.37208C70.7453 9.60469 70.9993 9.89098 71.1783 10.231C71.3608 10.5709 71.452 10.9592 71.452 11.3958V17H68.9828V15.8512H68.9183C68.7716 16.1304 68.5837 16.3666 68.3547 16.5598C68.1293 16.7531 67.8626 16.898 67.5549 16.9946C67.2507 17.0913 66.9071 17.1396 66.5242 17.1396ZM67.3348 15.4218C67.6175 15.4218 67.8716 15.3646 68.097 15.25C68.3261 15.1355 68.5086 14.9781 68.6446 14.7776C68.7806 14.5737 68.8486 14.3375 68.8486 14.0691V13.2853C68.7734 13.3247 68.6822 13.3605 68.5748 13.3927C68.471 13.4249 68.3565 13.4553 68.2312 13.484C68.106 13.5126 67.9772 13.5376 67.8447 13.5591C67.7123 13.5806 67.5853 13.6003 67.4636 13.6182C67.2167 13.6575 67.0056 13.7184 66.8302 13.8007C66.6584 13.883 66.526 13.9903 66.433 14.1228C66.3435 14.2516 66.2988 14.4055 66.2988 14.5844C66.2988 14.8564 66.3954 15.0639 66.5886 15.2071C66.7855 15.3502 67.0342 15.4218 67.3348 15.4218ZM74.3168 17V8.75476H76.9417V17H74.3168ZM75.6319 7.79389C75.2633 7.79389 74.9466 7.67221 74.6818 7.42886C74.417 7.18193 74.2846 6.8849 74.2846 6.53777C74.2846 6.19422 74.417 5.90077 74.6818 5.65742C74.9466 5.41049 75.2633 5.28703 75.6319 5.28703C76.0041 5.28703 76.3208 5.41049 76.5821 5.65742C76.8469 5.90077 76.9793 6.19422 76.9793 6.53777C76.9793 6.8849 76.8469 7.18193 76.5821 7.42886C76.3208 7.67221 76.0041 7.79389 75.6319 7.79389ZM82.4971 6.00634V17H79.8722V6.00634H82.4971ZM88.0633 17L84.864 6.00634H87.8003L89.459 13.2102H89.5502L91.4451 6.00634H93.8393L95.7342 13.2263H95.8254L97.4895 6.00634H100.42L97.2265 17H94.6659L92.6852 10.3329H92.5993L90.6185 17H88.0633ZM102.778 17V8.75476H105.403V17H102.778ZM104.093 7.79389C103.724 7.79389 103.408 7.67221 103.143 7.42886C102.878 7.18193 102.746 6.8849 102.746 6.53777C102.746 6.19422 102.878 5.90077 103.143 5.65742C103.408 5.41049 103.724 5.28703 104.093 5.28703C104.465 5.28703 104.782 5.41049 105.043 5.65742C105.308 5.90077 105.44 6.19422 105.44 6.53777C105.44 6.8849 105.308 7.18193 105.043 7.42886C104.782 7.67221 104.465 7.79389 104.093 7.79389ZM110.958 12.2976V17H108.333V8.75476H110.829V10.2685H110.921C111.103 9.76394 111.415 9.3685 111.855 9.0822C112.295 8.79233 112.819 8.6474 113.428 8.6474C114.007 8.6474 114.51 8.77802 114.936 9.03926C115.365 9.29692 115.698 9.65837 115.934 10.1236C116.174 10.5852 116.292 11.1256 116.289 11.7447V17H113.664V12.2601C113.667 11.802 113.551 11.4441 113.315 11.1865C113.082 10.9288 112.758 10.8 112.343 10.8C112.068 10.8 111.824 10.8608 111.613 10.9825C111.406 11.1006 111.245 11.2706 111.13 11.4924C111.019 11.7143 110.962 11.9827 110.958 12.2976ZM122.185 17.1181C121.577 17.1181 121.024 16.9606 120.526 16.6457C120.029 16.3308 119.632 15.8584 119.335 15.2286C119.038 14.5987 118.889 13.8168 118.889 12.8827C118.889 11.9129 119.043 11.1149 119.351 10.4886C119.658 9.86235 120.061 9.39892 120.558 9.09831C121.059 8.7977 121.598 8.6474 122.174 8.6474C122.607 8.6474 122.978 8.72255 123.285 8.87285C123.593 9.01958 123.847 9.20925 124.048 9.44186C124.248 9.67447 124.4 9.91603 124.504 10.1665H124.558V6.00634H127.183V17H124.584V15.6634H124.504C124.393 15.9175 124.236 16.1554 124.032 16.3773C123.828 16.5992 123.572 16.7781 123.264 16.9141C122.96 17.0501 122.6 17.1181 122.185 17.1181ZM123.098 15.0729C123.416 15.0729 123.688 14.9834 123.913 14.8045C124.139 14.622 124.312 14.3661 124.434 14.0369C124.556 13.7076 124.617 13.3211 124.617 12.8774C124.617 12.4265 124.556 12.0382 124.434 11.7125C124.316 11.3869 124.143 11.1364 123.913 10.961C123.688 10.7856 123.416 10.698 123.098 10.698C122.772 10.698 122.496 10.7874 122.271 10.9664C122.045 11.1453 121.874 11.3976 121.756 11.7233C121.641 12.0489 121.584 12.4336 121.584 12.8774C121.584 13.3211 121.643 13.7076 121.761 14.0369C121.879 14.3661 122.049 14.622 122.271 14.8045C122.496 14.9834 122.772 15.0729 123.098 15.0729Z" fill="#141414"></path>
  <path d="M56.7791 34H54.065V25.2051H56.8993C57.7525 25.2051 58.4825 25.3811 59.0895 25.7333C59.6964 26.0826 60.1616 26.585 60.4851 27.2406C60.8086 27.8934 60.9704 28.6749 60.9704 29.5854C60.9704 30.5015 60.8072 31.2902 60.4808 31.9516C60.1545 32.61 59.6792 33.1168 59.0551 33.4718C58.431 33.8239 57.6723 34 56.7791 34ZM55.13 33.0552H56.7104C57.4375 33.0552 58.0402 32.9149 58.5183 32.6344C58.9964 32.3538 59.3528 31.9544 59.5876 31.4362C59.8224 30.9181 59.9397 30.3011 59.9397 29.5854C59.9397 28.8754 59.8238 28.2641 59.5919 27.7517C59.36 27.2363 59.0136 26.8412 58.5527 26.5664C58.0917 26.2887 57.5177 26.1498 56.8306 26.1498H55.13V33.0552ZM65.385 34.1374C64.7495 34.1374 64.2012 33.9971 63.7403 33.7166C63.2822 33.4331 62.9286 33.0381 62.6796 32.5313C62.4334 32.0217 62.3103 31.4291 62.3103 30.7534C62.3103 30.0778 62.4334 29.4823 62.6796 28.967C62.9286 28.4488 63.2751 28.0451 63.7188 27.7559C64.1654 27.4639 64.6865 27.3179 65.282 27.3179C65.6255 27.3179 65.9648 27.3752 66.2997 27.4897C66.6347 27.6042 66.9396 27.7903 67.2145 28.048C67.4893 28.3028 67.7083 28.6406 67.8715 29.0614C68.0347 29.4823 68.1163 30.0005 68.1163 30.616V31.0455H63.0317V30.1694H67.0856C67.0856 29.7972 67.0112 29.4651 66.8623 29.1731C66.7163 28.8811 66.5073 28.6506 66.2353 28.4817C65.9662 28.3128 65.6484 28.2283 65.282 28.2283C64.8783 28.2283 64.529 28.3285 64.2341 28.5289C63.9421 28.7265 63.7174 28.9841 63.5599 29.3019C63.4025 29.6197 63.3237 29.9604 63.3237 30.324V30.908C63.3237 31.4062 63.4096 31.8285 63.5814 32.1749C63.756 32.5184 63.998 32.7804 64.3071 32.9608C64.6163 33.1383 64.9756 33.227 65.385 33.227C65.6513 33.227 65.8918 33.1898 66.1065 33.1154C66.3241 33.0381 66.5116 32.9235 66.6691 32.7718C66.8265 32.6172 66.9482 32.4254 67.0341 32.1964L68.0132 32.4712C67.9101 32.8033 67.7369 33.0953 67.4936 33.3473C67.2502 33.5963 66.9496 33.791 66.5918 33.9313C66.2339 34.0687 65.8317 34.1374 65.385 34.1374ZM69.658 34V27.4038H70.6371V28.4345H70.723C70.8604 28.0823 71.0823 27.8089 71.3886 27.6142C71.6949 27.4167 72.0628 27.3179 72.4923 27.3179C72.9274 27.3179 73.2896 27.4167 73.5788 27.6142C73.8708 27.8089 74.0984 28.0823 74.2616 28.4345H74.3303C74.4992 28.0938 74.7526 27.8232 75.0904 27.6228C75.4282 27.4196 75.8333 27.3179 76.3057 27.3179C76.8955 27.3179 77.3779 27.5026 77.7529 27.8719C78.128 28.2383 78.3155 28.8095 78.3155 29.5854V34H77.302V29.5854C77.302 29.0987 77.1689 28.7508 76.9026 28.5418C76.6364 28.3328 76.3229 28.2283 75.9621 28.2283C75.4983 28.2283 75.1391 28.3686 74.8842 28.6492C74.6294 28.9269 74.502 29.279 74.502 29.7056V34H73.4714V29.4823C73.4714 29.1072 73.3497 28.8052 73.1064 28.5762C72.863 28.3443 72.5495 28.2283 72.1659 28.2283C71.9025 28.2283 71.6563 28.2985 71.4273 28.4388C71.2011 28.579 71.0179 28.7737 70.8776 29.0228C70.7402 29.269 70.6714 29.5539 70.6714 29.8774V34H69.658ZM82.8482 34.1374C82.2527 34.1374 81.7302 33.9957 81.2808 33.7123C80.8341 33.4288 80.4849 33.0323 80.2329 32.5227C79.9838 32.0131 79.8593 31.4176 79.8593 30.7363C79.8593 30.0492 79.9838 29.4494 80.2329 28.9369C80.4849 28.4244 80.8341 28.0265 81.2808 27.7431C81.7302 27.4596 82.2527 27.3179 82.8482 27.3179C83.4437 27.3179 83.9648 27.4596 84.4114 27.7431C84.8609 28.0265 85.2101 28.4244 85.4592 28.9369C85.7111 29.4494 85.8371 30.0492 85.8371 30.7363C85.8371 31.4176 85.7111 32.0131 85.4592 32.5227C85.2101 33.0323 84.8609 33.4288 84.4114 33.7123C83.9648 33.9957 83.4437 34.1374 82.8482 34.1374ZM82.8482 33.227C83.3006 33.227 83.6727 33.1111 83.9648 32.8792C84.2568 32.6473 84.4729 32.3424 84.6132 31.9645C84.7535 31.5865 84.8236 31.1771 84.8236 30.7363C84.8236 30.2954 84.7535 29.8845 84.6132 29.5038C84.4729 29.123 84.2568 28.8152 83.9648 28.5805C83.6727 28.3457 83.3006 28.2283 82.8482 28.2283C82.3959 28.2283 82.0237 28.3457 81.7317 28.5805C81.4396 28.8152 81.2235 29.123 81.0832 29.5038C80.9429 29.8845 80.8728 30.2954 80.8728 30.7363C80.8728 31.1771 80.9429 31.5865 81.0832 31.9645C81.2235 32.3424 81.4396 32.6473 81.7317 32.8792C82.0237 33.1111 82.3959 33.227 82.8482 33.227ZM96.1791 27.4038L93.7399 34H92.7092L90.27 27.4038H91.3694L93.1902 32.6601H93.2589L95.0797 27.4038H96.1791ZM100.248 34.1202C99.7442 34.1202 99.2904 34.02 98.8867 33.8196C98.483 33.6192 98.1595 33.3444 97.9162 32.9951C97.6728 32.6458 97.5397 32.2479 97.5168 31.8013H98.5475C98.5875 32.1992 98.7679 32.5285 99.0885 32.789C99.4121 33.0466 99.7986 33.1755 100.248 33.1755C100.609 33.1755 100.929 33.091 101.21 32.9221C101.493 32.7532 101.715 32.5213 101.876 32.2264C102.039 31.9287 102.12 31.5923 102.12 31.2172C102.12 30.8336 102.036 30.4915 101.867 30.1909C101.701 29.8874 101.472 29.6483 101.18 29.4737C100.888 29.2991 100.554 29.2103 100.179 29.2075C99.9102 29.2046 99.6339 29.2461 99.3505 29.332C99.0671 29.415 98.8337 29.5224 98.6505 29.6541L97.6542 29.5338L98.1867 25.2051H102.756V26.1498H99.08L98.7708 28.7437H98.8223C99.0027 28.6005 99.2288 28.4817 99.5008 28.3872C99.7728 28.2927 100.056 28.2455 100.351 28.2455C100.889 28.2455 101.369 28.3743 101.79 28.632C102.213 28.8868 102.546 29.2361 102.786 29.6798C103.029 30.1236 103.151 30.6303 103.151 31.2001C103.151 31.7612 103.025 32.2622 102.773 32.7031C102.524 33.1411 102.181 33.4875 101.742 33.7423C101.304 33.9943 100.806 34.1202 100.248 34.1202Z" fill="#141414"></path>
</svg>
